<mxfile host="65bd71144e">
    <diagram id="Xdzq0T5rtHVKRT2HmKXS" name="第 1 页">
        <mxGraphModel dx="863" dy="628" grid="1" gridSize="10" guides="1" tooltips="1" connect="1" arrows="1" fold="1" page="1" pageScale="1" pageWidth="827" pageHeight="1169" math="0" shadow="0">
            <root>
                <mxCell id="0"/>
                <mxCell id="1" parent="0"/>
                <mxCell id="1523" value="" style="edgeStyle=none;html=1;fontFamily=JetBrains Mono;fontSize=18;" edge="1" parent="1" source="1520" target="1521">
                    <mxGeometry relative="1" as="geometry"/>
                </mxCell>
                <mxCell id="1520" value="%esp" style="rounded=0;whiteSpace=wrap;html=1;fontSize=18;fontFamily=JetBrains Mono;fillColor=#e1d5e7;strokeColor=#9673a6;" vertex="1" parent="1">
                    <mxGeometry x="120" y="360" width="80" height="40" as="geometry"/>
                </mxCell>
                <mxCell id="1532" value="" style="edgeStyle=none;html=1;fontFamily=JetBrains Mono;fontSize=18;" edge="1" parent="1" source="1521" target="1527">
                    <mxGeometry relative="1" as="geometry"/>
                </mxCell>
                <mxCell id="1533" style="edgeStyle=none;html=1;exitX=0.999;exitY=0.833;exitDx=0;exitDy=0;entryX=-0.001;entryY=0.141;entryDx=0;entryDy=0;fontFamily=JetBrains Mono;fontSize=18;exitPerimeter=0;entryPerimeter=0;" edge="1" parent="1" source="1521" target="1524">
                    <mxGeometry relative="1" as="geometry"/>
                </mxCell>
                <mxCell id="1521" value="%eax" style="rounded=0;whiteSpace=wrap;html=1;fontSize=18;fontFamily=JetBrains Mono;fillColor=#e1d5e7;strokeColor=#9673a6;" vertex="1" parent="1">
                    <mxGeometry x="240" y="360" width="80" height="40" as="geometry"/>
                </mxCell>
                <mxCell id="1528" value="" style="edgeStyle=none;html=1;fontFamily=JetBrains Mono;fontSize=18;" edge="1" parent="1" source="1524" target="1525">
                    <mxGeometry relative="1" as="geometry"/>
                </mxCell>
                <mxCell id="1524" value="%edx" style="rounded=0;whiteSpace=wrap;html=1;fontSize=18;fontFamily=JetBrains Mono;fillColor=#e1d5e7;strokeColor=#9673a6;" vertex="1" parent="1">
                    <mxGeometry x="360" y="400" width="80" height="40" as="geometry"/>
                </mxCell>
                <mxCell id="1529" value="" style="edgeStyle=none;html=1;fontFamily=JetBrains Mono;fontSize=18;" edge="1" parent="1" source="1525" target="1526">
                    <mxGeometry relative="1" as="geometry"/>
                </mxCell>
                <mxCell id="1525" value="%ecx" style="rounded=0;whiteSpace=wrap;html=1;fontSize=18;fontFamily=JetBrains Mono;fillColor=#e1d5e7;strokeColor=#9673a6;" vertex="1" parent="1">
                    <mxGeometry x="480" y="400" width="80" height="40" as="geometry"/>
                </mxCell>
                <mxCell id="1526" value="%esi" style="rounded=0;whiteSpace=wrap;html=1;fontSize=18;fontFamily=JetBrains Mono;fillColor=#e1d5e7;strokeColor=#9673a6;" vertex="1" parent="1">
                    <mxGeometry x="600" y="400" width="80" height="40" as="geometry"/>
                </mxCell>
                <mxCell id="1527" value="%edi" style="rounded=0;whiteSpace=wrap;html=1;fontSize=18;fontFamily=JetBrains Mono;fillColor=#e1d5e7;strokeColor=#9673a6;" vertex="1" parent="1">
                    <mxGeometry x="360" y="320" width="80" height="40" as="geometry"/>
                </mxCell>
            </root>
        </mxGraphModel>
    </diagram>
</mxfile>